<svg width="261" height="261" viewBox="0 0 261 261" fill="none" xmlns="http://www.w3.org/2000/svg">
<path d="M168 127.036C170.667 128.576 170.667 132.425 168 133.964L114.75 164.708C112.083 166.248 108.75 164.323 108.75 161.244L108.75 99.7561C108.75 96.6769 112.083 94.7524 114.75 96.292L168 127.036Z" fill="#FF0000"/>
<path d="M127.036 180C128.576 177.333 132.425 177.333 133.964 180L164.708 233.25C166.248 235.917 164.323 239.25 161.244 239.25H99.7561C96.6769 239.25 94.7524 235.917 96.292 233.25L127.036 180Z" fill="#FF0000"/>
<path d="M214.036 180C215.576 177.333 219.425 177.333 220.964 180L251.708 233.25C253.248 235.917 251.323 239.25 248.244 239.25H186.756C183.677 239.25 181.752 235.917 183.292 233.25L214.036 180Z" fill="#FF0000"/>
<path d="M214.036 27C215.576 24.3333 219.425 24.3333 220.964 27L251.708 80.25C253.248 82.9167 251.323 86.25 248.244 86.25L186.756 86.25C183.677 86.25 181.752 82.9167 183.292 80.25L214.036 27Z" fill="#FF0000"/>
<path d="M40.0359 27C41.5755 24.3333 45.4245 24.3333 46.9641 27L77.708 80.25C79.2476 82.9167 77.3231 86.25 74.2439 86.25L12.7561 86.25C9.67689 86.25 7.7524 82.9167 9.292 80.25L40.0359 27Z" fill="#FF0000"/>
<path d="M133.964 81C132.424 83.6667 128.576 83.6667 127.036 81L96.292 27.75C94.7524 25.0833 96.6769 21.75 99.7561 21.75L161.244 21.75C164.323 21.75 166.248 25.0833 164.708 27.75L133.964 81Z" fill="#FF0000"/>
</svg>
